<svg width="45" height="44" viewBox="0 0 45 44" fill="none" xmlns="http://www.w3.org/2000/svg">
<path fill-rule="evenodd" clip-rule="evenodd" d="M11.5144 2.5286C2.96307 4.55091 0.814214 5.09683 0.589938 5.30355C-0.00832176 5.85505 6.10992e-06 5.74636 6.10992e-06 12.9944C6.10992e-06 19.3501 0.0067066 19.5969 0.192694 20.069C0.409407 20.6189 0.96086 21.0572 1.43583 21.0572C1.9108 21.0572 2.46225 20.6189 2.67897 20.069C2.86313 19.6015 2.87165 19.3471 2.87165 14.2944V9.00898L3.08703 9.07615C3.20543 9.11296 7.62059 10.1582 12.8983 11.3989L22.4942 13.6544L33.1913 11.1432C39.0747 9.76199 44.0292 8.54857 44.2014 8.44683C45.1263 7.89979 45.2411 6.07961 44.3994 5.3038C44.1751 5.09696 42.0173 4.55141 33.3804 2.51769C27.4733 1.12681 22.5321 -0.00617128 22.3999 2.52975e-05C22.2677 0.00609794 17.3692 1.14404 11.5144 2.5286ZM8.61495 20.0774V26.0145H22.4946H36.3742V20.0886V14.1627L29.6498 15.7478C25.9514 16.6195 22.7523 17.3342 22.5407 17.3361C22.2525 17.3384 9.73575 14.4768 8.78246 14.1906C8.62471 14.1432 8.61495 14.4865 8.61495 20.0774ZM3.86065 29.9618C2.90094 30.3913 2.2196 31.3717 2.00671 32.6297C1.93626 33.0455 1.91013 34.5257 1.93071 36.9205C1.96019 40.3281 1.97599 40.6147 2.16389 41.1405C2.45852 41.965 2.90812 42.5654 3.52428 42.9572L4.06817 43.3029L22.9991 43.3352C41.8383 43.3671 41.9318 43.3661 42.3096 43.1165C42.7361 42.8348 43.0747 42.1221 43.0747 41.5059C43.0747 40.891 42.7361 40.177 42.3114 39.8964C42.0153 39.7009 41.7467 39.647 41.0684 39.647H40.2031V39.0273V38.4076H24.4938H8.78457L8.40273 38.1298C7.97648 37.8196 7.65773 37.1432 7.65773 36.5487C7.65773 35.9542 7.97648 35.2778 8.40273 34.9676L8.78457 34.6897H24.4938H40.2031V34.07V33.4504H41.0684C41.7467 33.4504 42.0153 33.3965 42.3114 33.2009C42.7361 32.9203 43.0747 32.2064 43.0747 31.5914C43.0747 30.9765 42.7361 30.2625 42.3114 29.9819C41.9366 29.7343 41.7897 29.7324 23.1445 29.7365C5.35984 29.7404 4.32892 29.7524 3.86065 29.9618Z" fill="white"/>
</svg>
